<?xml version="1.0"?><svg enable-background="new 0 0 24 24" id="Layer_1" version="1.1" viewBox="0 0 24 24" xml:space="preserve" xmlns="http://www.w3.org/2000/svg" xmlns:xlink="http://www.w3.org/1999/xlink"><g><path d="M0.5,1.5h4   c0,0,3.5-1,7.5-1s7.5,1,7.5,1h4l-1,7l-1,1L21,18.4991055L15.4978867,23.5H8.5L3,18.4991055L2.5,9.5l-1-1L0.5,1.5z" fill="none" stroke="#303C42" stroke-linecap="round" stroke-linejoin="round" stroke-miterlimit="10"/><polyline fill="none" points="4.5,1.5    5,4 12,8.5 19,4 19.5,1.5  " stroke="#303C42" stroke-linecap="round" stroke-linejoin="round" stroke-miterlimit="10"/><polyline fill="none" points="   9,6.5800004 10,12.5 10,18.5 13.5,18.5 13.5,12.5 14.5,6.8928571  " stroke="#303C42" stroke-linecap="round" stroke-linejoin="round" stroke-miterlimit="10"/><line fill="none" stroke="#303C42" stroke-linecap="round" stroke-linejoin="round" stroke-miterlimit="10" x1="21.5" x2="19" y1="9.5" y2="11.583333"/><polyline fill="none" points="   17.5,21.6802711 17.5,14.5 19,13.5 19,11.5 13.5,12.5 17.5,14.5  " stroke="#303C42" stroke-linecap="round" stroke-linejoin="round" stroke-miterlimit="10"/><line fill="none" stroke="#303C42" stroke-linecap="round" stroke-linejoin="round" stroke-miterlimit="10" x1="2.5" x2="5" y1="9.5" y2="11.583333"/><polyline fill="none" points="   6.5,21.6814938 6.5,14.5 5,13.5 5,11.5 10,12.5 6.5,14.5  " stroke="#303C42" stroke-linecap="round" stroke-linejoin="round" stroke-miterlimit="10"/><polygon fill="none" points="8.5,2.5    15.5,2.5 12,5.5  " stroke="#303C42" stroke-linecap="round" stroke-linejoin="round" stroke-miterlimit="10"/><polyline fill="none" points="8.5,23.5    9.5,20.5 14,20.5 15.4978867,23.5  " stroke="#303C42" stroke-linecap="round" stroke-linejoin="round" stroke-miterlimit="10"/><line fill="none" stroke="#303C42" stroke-linecap="round" stroke-linejoin="round" stroke-miterlimit="10" x1="2.5" x2="7.5" y1="4.5" y2="8.5"/><line fill="none" stroke="#303C42" stroke-linecap="round" stroke-linejoin="round" stroke-miterlimit="10" x1="3.5" x2="7.5" y1="7.5" y2="10.5"/><line fill="none" stroke="#303C42" stroke-linecap="round" stroke-linejoin="round" stroke-miterlimit="10" x1="21.5" x2="16.5" y1="4.5" y2="8.5"/><line fill="none" stroke="#303C42" stroke-linecap="round" stroke-linejoin="round" stroke-miterlimit="10" x1="20.5" x2="16.5" y1="7.5" y2="10.5"/></g><g/><g/><g/><g/><g/><g/><g/><g/><g/><g/><g/><g/><g/><g/><g/></svg>